# xmcd
#
# Track frame offsets:
#	150
#	28247
#	39518
#	51385
#	65880
#	79476
#	90255
#	104886
#	119353
#	127442
#	150592
#	169718
#	181640
#	202124
#	214755
#	225224
#
# Disc length: 3292
#
# Revision: 1
# Processed by: cddbd v1.5.1PL0 Copyright (c) Steve Scherf et al.
# Submitted via: CDex 1.51
# Normalized: r0:DSETVAR1,TDELIM( - )
#
DISCID=e70cda10
DTITLE=Various Artist - American Songbook
DYEAR=2001
DGENRE=Jazz
TTITLE0=Dinah Washington - I Get A Kick Out Of You
TTITLE1=Frank Sinatra - Night And Day
TTITLE2=Louis Prima and Keely Smith - I've Got You Under My Skin
TTITLE3=Benny Goodman - You Do Something To Me
TTITLE4=Nat King Cole - What Is This Thing Called Love?
TTITLE5=Peggy Lee - It's All Right With Me
TTITLE6=Artie Shaw - Begin The Beguine
TTITLE7=Billie Holiday - Easy To Love
TTITLE8=Tony Bennett - Experiment
TTITLE9=Louis Armstrong - Now You Has Jazz
TTITLE10=Sarah Vaughan - All Of You
TTITLE11=Dean Martin - C'est Magnifique
TTITLE12=Coleman Hawkins - Just One Of Those Things
TTITLE13=Maurice Chevalier - You've Got That Thing
TTITLE14=Tony Bennett - Anything Goes
TTITLE15=Ella Fitzgerald - Lets Do It
EXTD=YEAR: 2001
EXTT0=
EXTT1=
EXTT2=
EXTT3=
EXTT4=
EXTT5=
EXTT6=
EXTT7=
EXTT8=
EXTT9=
EXTT10=
EXTT11=
EXTT12=
EXTT13=
EXTT14=
EXTT15=
PLAYORDER=
